<?xml version="1.0" encoding="UTF-8"?><svg id="Ebene_1" xmlns="http://www.w3.org/2000/svg" width="415.2mm" height="177.3mm" viewBox="0 0 1176.9 502.5"><defs><style>.cls-1{fill:#1d1d1b;}</style></defs><path class="cls-1" d="M167,168.1h86.7c16.4,0,28.6,4,37.5,10.8,10.1,7.7,15.9,19.2,15.9,33s-6.8,26-20.8,32.1v.7c18.3,5.9,28.8,21.3,28.8,40.3s-7.3,31.6-19.2,40.1c-10.1,7-23.2,10.5-40.5,10.5h-88.3v-167.5ZM245.5,233.2c9.4,0,15.7-4.4,15.7-13.4s-6.6-13.8-15.9-13.8h-30.2v27.2h30.5ZM249.9,297.2c10.5,0,17.8-6.3,17.8-16.4s-8-16.2-18-16.2h-34.7v32.6h34.9Z"/><path class="cls-1" d="M405,335.6v-15.5h-.7c-9.1,12.4-20.8,19.2-37.2,19.2-28.6,0-42.6-18.7-42.6-46.1v-77.1h44.3v66.5c0,12.4,5.4,19,15.9,19s18.3-8.2,18.3-21.1v-64.4h44.3v119.5h-42.2Z"/><path class="cls-1" d="M505.3,234.2h.7c9.6-15,21.1-20.6,36.3-20.6s5.9.5,7.3,1.2v37.7h-.9c-26-4.5-41.2,7.3-41.2,34.2v49h-44.3v-119.5h42.2v18Z"/><path class="cls-1" d="M554,275.6c0-37.5,21.6-63.2,53.4-63.2s25.5,6.3,33.3,16.4h.7v-60.7h44.3v167.5h-42.2v-16.6h-.5c-7.7,13.4-20.4,20.6-35.1,20.6-30.9,0-53.9-22.7-53.9-64ZM642.5,274.9c0-17.1-8.9-30.7-22-30.7s-21.6,12.4-21.6,30.7,8.4,31.2,21.6,31.2,22-13.8,22-31.2Z"/><path class="cls-1" d="M774.6,321.8h-.5c-7.7,10.5-19.9,16.9-38.2,16.9s-39.8-12.4-39.8-35.8,20.4-34.2,43.3-36.8c25.3-2.8,32.1-5.9,32.1-13.4s-3-11.5-12.7-11.5-14.5,5.6-15.7,14.3h-41.9c.9-23.7,19.2-43.1,56.7-43.1s33.5,3.7,43.3,11c9.8,7.7,14.3,16.9,14.3,32.8v45.2c0,7.7,3,8.4,7.5,7.7h.7v25.1c-3.3,1.4-11.2,3.5-19.4,3.5-17.8,0-26.9-4.9-29.7-15.9ZM772.8,292.3v-10.5c-4.2,2.1-9.6,4-17.1,5.6-12.9,2.8-16.9,6.6-16.9,13.6s6.6,11.5,13.8,11.5c10.3,0,20.1-5.9,20.1-20.1Z"/><path class="cls-1" d="M837,290.9h45.7v44.7h-45.7v-44.7ZM900.2,290.9h45.7v44.7h-45.7v-44.7ZM963.2,290.9h45.7v44.7h-45.7v-44.7Z"/></svg>